<?xml version="1.0" encoding="utf-8"?>
<!-- Generator: Adobe Illustrator 25.1.0, SVG Export Plug-In . SVG Version: 6.00 Build 0)  -->
<svg version="1.1" id="Layer_1" xmlns="http://www.w3.org/2000/svg" xmlns:xlink="http://www.w3.org/1999/xlink" x="0px" y="0px"
	 viewBox="0 0 500 500" style="enable-background:new 0 0 500 500;" xml:space="preserve">
<style type="text/css">
	.st0{fill-rule:evenodd;clip-rule:evenodd;fill:#16A24A;}
	.st1{fill-rule:evenodd;clip-rule:evenodd;fill:#000200;}
	.st2{fill-rule:evenodd;clip-rule:evenodd;fill:#000100;}
</style>
<path class="st0" d="M234,0h29c87.1,7.5,154.3,47.8,201.5,121c19.8,34,31.9,71.8,35.5,111v30c-8.3,98.4-56.3,169.9-144,214.5
	c-29.4,13.3-60.9,21.2-93,23.5h-29c-85.8-8.4-152-48.7-198.5-121C15.5,344.8,3.4,306.5,0,267v-37c4-38.4,16.1-75.6,35.5-109
	C82,48.7,148.1,8.3,234,0z"/>
<path class="st1" d="M123.7,133.3c17-0.2,34,0,51.1,0.7c25.5,24.2,50.6,48.8,75.3,74l74-74c13.1-0.9,26.2-0.9,39.3,0
	c4.7,6.8,9.1,13.8,13.1,21L254.6,276.7c-2.3,1.7-5.2,2.2-7.9,1.3c-40.4-40.9-81.2-81.2-122.4-121.1
	C123.7,149,123.4,141.1,123.7,133.3z"/>
<path class="st2" d="M123.7,249.8c17.5-0.2,34.9,0,52.4,0.7c24.3,24.7,48.9,49,74,72.7c25-23.7,49.7-48,74-72.7
	c13.1-0.9,26.2-0.9,39.3,0c4.7,6.8,9.1,13.8,13.1,21L271.6,376.2l-21.6,19l-16.4-13.8c-36.1-36.5-72.5-72.5-109.4-108
	C123.7,265.6,123.4,257.7,123.7,249.8z"/>
</svg>
